<svg width="40" height="38" viewBox="0 0 40 38" fill="none" xmlns="http://www.w3.org/2000/svg">
<path d="M2.16866 21.29L17.2362 28.8913L19.9262 21.29L4.85991 14.0925L2.16866 21.29ZM20.2637 21.29L22.8199 28.8238L38.4249 21.2225L35.3974 14.0925L20.2637 21.29ZM-0.308838 8.01502L4.87116 14.0688L19.9374 6.40127L15.0274 0.14502L-0.308838 8.01502ZM40.3087 8.14877L25.3074 0.14502L20.1949 6.40127L35.3974 14.0688L40.3087 8.14877ZM3.96866 23.1913L3.91741 30.49L19.8087 37.8563V24.1313L17.5387 30.0513L3.96866 23.1913ZM20.3637 24.1313V37.855L36.2062 30.4888V23.24L22.4687 30.065L20.3637 24.1313Z" fill="#1FC16B"/>
</svg>
