<svg width="40" height="24" viewBox="0 0 40 24" fill="none" xmlns="http://www.w3.org/2000/svg">
<path d="M39.5282 1.58826C39.2304 1.46746 38.7548 1.21636 38.188 1.06516C37.6212 0.905234 36.8554 0.639316 36.0744 0.572457C35.2853 0.490023 34.3934 0.465711 33.4186 0.512816C32.467 0.590312 31.501 0.792409 30.465 1.06023C29.4302 1.32728 28.4836 1.77174 27.4723 2.25799C26.4854 2.76095 25.5858 3.38852 24.6851 4.07193C23.8338 4.77775 23.0262 5.55916 22.2877 6.38996C21.599 7.24356 20.9144 8.12184 20.3872 9.05901C19.8435 9.98972 19.3748 10.9482 19.0355 11.9283C18.31 13.8687 18.0209 15.8653 17.9905 17.6436C17.9931 18.5458 18.0463 19.383 18.158 20.1523C18.2556 20.917 18.4471 21.6228 18.5949 22.1934C18.6545 22.4612 18.7385 22.7173 18.8213 22.9437C18.9668 22.6383 19.1248 22.3161 19.3011 21.9636C20.1767 20.2268 21.4531 17.965 22.9457 15.8467C23.6891 14.7861 24.5047 13.7775 25.2998 12.8658C25.7211 12.4278 26.1283 12.0065 26.5127 11.6069C26.9261 11.2357 27.3162 10.884 27.6737 10.5603C28.0615 10.2689 28.4148 10.0038 28.7293 9.76749C29.031 9.51715 29.3467 9.37165 29.5833 9.22122C30.0658 8.93555 30.3412 8.77258 30.3412 8.77258C30.3412 8.77258 30.0787 8.95796 29.6209 9.27858C29.3983 9.44877 29.0994 9.61402 28.8186 9.88563C28.5276 10.1424 28.1998 10.4315 27.8412 10.7468C27.5126 11.0948 27.1574 11.4682 26.7817 11.8648C26.436 12.2861 26.0706 12.7306 25.6937 13.191C24.9826 14.149 24.2676 15.1941 23.6241 16.2889C22.3283 18.4687 21.2601 20.7742 20.5414 22.5288C20.3393 23.0231 20.1691 23.4649 20.0228 23.855C20.3305 23.773 20.7214 23.686 21.1431 23.5302C21.678 23.3445 22.3686 23.153 23.038 22.8799C23.7233 22.6177 24.4538 22.3081 25.1908 21.9556C25.9395 21.6084 26.6689 21.2004 27.4161 20.7711C28.1626 20.3438 28.8695 19.8549 29.5719 19.3519C30.2542 18.8292 30.9315 18.3011 31.5462 17.7165C32.1536 17.1155 32.7671 16.5518 33.2974 15.9003C34.3881 14.6509 35.3173 13.3144 36.0744 11.9039C36.4683 11.2395 36.7958 10.4661 37.1168 9.76711C37.4415 9.07345 37.7173 8.30381 37.992 7.59799C38.2689 6.90508 38.525 6.20306 38.751 5.51927C38.9968 4.81497 39.2114 4.20109 39.3896 3.6966C39.5951 3.19478 39.7235 2.67016 39.8394 2.36132C39.9461 2.01259 40.0008 1.82835 40.0008 1.82835C40.0008 1.82835 39.8352 1.72806 39.5282 1.58826Z" fill="#1FC16B"/>
<path d="M15.3583 17.2014C14.2977 16.4576 13.2903 15.6416 12.3782 14.8458C11.9413 14.4271 11.5196 14.0188 11.1192 13.6343C10.7473 13.221 10.3978 12.8309 10.0715 12.4734C9.78091 12.0871 9.51651 11.7308 9.27909 11.4177C9.02875 11.1157 8.88515 10.8004 8.73358 10.5638C8.44715 10.0824 8.28456 9.80589 8.28456 9.80589C8.28456 9.80589 8.46994 10.0684 8.79208 10.5261C8.95961 10.7484 9.126 11.047 9.39913 11.3277C9.65593 11.6198 9.94464 11.9477 10.2603 12.3063C10.6075 12.6337 10.9817 12.9901 11.3783 13.3642C11.7988 13.7099 12.2448 14.0754 12.7045 14.4522C13.6614 15.1607 14.7076 15.8783 15.8017 16.5218C16.2545 16.7923 16.7134 17.0301 17.1707 17.2744C17.3219 14.8279 17.8241 12.4096 18.5759 10.207C18.1451 9.65014 17.7083 9.10197 17.2277 8.60015C16.6271 7.99158 16.0657 7.37807 15.4119 6.84852C14.1617 5.75788 12.8268 4.82907 11.4167 4.07082C10.7523 3.67689 9.97769 3.34943 9.27871 3.02881C8.58656 2.70401 7.81768 2.42708 7.11148 2.15394C6.41782 1.87815 5.71656 1.62287 5.03201 1.39684C4.32809 1.14915 3.71572 0.934521 3.20934 0.756357C2.70752 0.551981 2.18176 0.422441 1.87406 0.306577C1.52685 0.20135 1.34184 0.145508 1.34184 0.145508C1.34184 0.145508 1.2389 0.313036 1.09796 0.6196C0.978298 0.916668 0.726817 1.39304 0.574864 1.95982C0.415694 2.52471 0.149017 3.29093 0.0840573 4.07234C0.000103504 4.86212 -0.023829 5.75522 0.0244159 6.72961C0.0996324 7.68046 0.30135 8.64498 0.569926 9.68243C0.838882 10.7165 1.2822 11.6643 1.76769 12.6763C2.27141 13.6606 2.89822 14.5601 3.58391 15.4623C4.28935 16.3152 5.07076 17.1224 5.90118 17.862C6.75326 18.5485 7.63344 19.2334 8.57213 19.7626C9.50094 20.3062 10.4598 20.7753 11.4395 21.1134C13.3791 21.8402 15.3758 22.1289 17.1556 22.16C17.2315 22.16 17.2965 22.152 17.3687 22.1498C17.1783 20.903 17.1092 19.6304 17.1328 18.3525C16.542 17.9813 15.9487 17.6174 15.3583 17.2014Z" fill="#1FC16B"/>
</svg>
