<svg width="40" height="30" viewBox="0 0 40 30" fill="none" xmlns="http://www.w3.org/2000/svg">
<path d="M39.888 22.2966L38.5546 20.2966C38.3073 19.9259 37.6926 19.9259 37.4453 20.2966L36.6666 21.4646L35.888 20.2966C35.6406 19.9259 35.0259 19.9259 34.7786 20.2966L33.9999 21.4646L33.2212 20.2966C32.9739 19.9259 32.3592 19.9259 32.112 20.2966L31.9999 20.4646V15.3106L32.9899 15.9046C33.0959 15.9686 33.2146 15.9999 33.3333 15.9999C33.4466 15.9999 33.5599 15.9713 33.662 15.9133C33.8713 15.7953 33.9999 15.5733 33.9999 15.3333V12C33.9999 11.766 33.8766 11.5487 33.6766 11.4287L30.6666 9.62266V4H31.3332C31.7019 4 31.9998 3.70133 31.9998 3.33336V0.66664C31.9998 0.298672 31.7019 0 31.3332 0H23.3332C22.9645 0 22.6666 0.298672 22.6666 0.66664V3.33328C22.6666 3.70125 22.9645 3.99992 23.3332 3.99992H23.9998V5.62258L20.3432 3.42859C20.1319 3.30125 19.8679 3.30125 19.6566 3.42859L6.3232 11.4286C6.1232 11.5486 5.99984 11.7659 5.99984 11.9999V15.3333C5.99984 15.5733 6.12852 15.7953 6.33781 15.9133C6.54711 16.032 6.80312 16.0286 7.00984 15.9046L7.99984 15.3106V20.4646L7.88781 20.2966C7.64047 19.9259 7.02578 19.9259 6.77852 20.2966L5.99984 21.4646L5.22117 20.2966C4.97383 19.9259 4.35914 19.9259 4.11188 20.2966L3.3332 21.4646L2.55453 20.2966C2.30719 19.9259 1.6925 19.9259 1.44523 20.2966L0.111875 22.2966C0.0392969 22.406 0 22.5353 0 22.6666V29.3333C0 29.7013 0.297969 30 0.666641 30H3.33328H6H8.66664H22.6666V27.3334H9.33336V26H22.6667V18.6666C22.6667 18.2987 22.9647 18 23.3334 18H28.6667C29.0354 18 29.3334 18.2987 29.3334 18.6666V26H30.6667V27.3334H29.3334V30H31.3334H34H36.6666H39.3333C39.702 30 39.9999 29.7013 39.9999 29.3334V22.6667C40 22.5353 39.9607 22.406 39.888 22.2966ZM2.66664 28.6666H1.33336V22.8687L2 21.8687L2.66664 22.8687V28.6666ZM5.33336 28.6666H4V22.8687L4.66664 21.8687L5.33328 22.8687L5.33336 28.6666ZM8 26.6666V28.6666H6.66664V22.8687L7.33328 21.8687L7.99992 22.8687L8 26.6666ZM24 1.33336H30.6666V2.66672H30H24.6666H24V1.33336ZM29.3334 4V8.82266L25.3334 6.42266V4H29.3334ZM21.3334 23.3334H20.6667H11.3334H10.6667C10.298 23.3334 10.0001 23.0347 10.0001 22.6667C10.0001 22.2987 10.298 22.0001 10.6667 22.0001V16.0001C10.6667 15.6321 10.9647 15.3334 11.3334 15.3334H20.6667C21.0354 15.3334 21.3334 15.6321 21.3334 16.0001V22.0001C21.702 22.0001 22 22.2987 22 22.6667C22 23.0347 21.702 23.3334 21.3334 23.3334ZM20.3434 6.76203C20.132 6.63469 19.868 6.63469 19.6567 6.76203L7.33336 14.156V12.3773L20 4.77734L24.3227 7.37133C24.3227 7.37133 24.3234 7.37133 24.3234 7.37203L28.1373 9.66L32.6666 12.3773V14.156L20.3434 6.76203ZM33.3334 28.6666H32V26.6666V22.8687L32.6666 21.8687L33.3333 22.8687V28.6666H33.3334ZM36 28.6666H34.6666V22.8687L35.3333 21.8687L35.9999 22.8687L36 28.6666ZM38.6666 28.6666H37.3333V22.8687L37.9999 21.8687L38.6666 22.8687V28.6666H38.6666Z" fill="#005FB8"/>
<path d="M19.9999 16.6663H16.6665V18.6663H19.9999V16.6663Z" fill="#005FB8"/>
<path d="M24 29.9999H28V19.3333H24V29.9999ZM26 23.3333H26.6666C27.0353 23.3333 27.3333 23.6319 27.3333 23.9999C27.3333 24.3679 27.0353 24.6665 26.6666 24.6665H26C25.6313 24.6665 25.3334 24.3679 25.3334 23.9999C25.3334 23.6319 25.6313 23.3333 26 23.3333Z" fill="#005FB8"/>
<path d="M19.9999 19.9998H16.6665V21.9998H19.9999V19.9998Z" fill="#005FB8"/>
<path d="M15.3334 16.6663H12V18.6663H15.3334V16.6663Z" fill="#005FB8"/>
<path d="M15.3334 19.9998H12V21.9998H15.3334V19.9998Z" fill="#005FB8"/>
</svg>
