<svg width="40" height="36" viewBox="0 0 40 36" fill="none" xmlns="http://www.w3.org/2000/svg">
<path d="M38.636 21.2387H35.3758C35.3063 20.9531 35.1457 20.6875 34.8972 20.4913L23.394 11.4057C23.8576 10.7382 24.1302 9.92859 24.1302 9.05625C24.1302 7.78211 23.558 6.61305 22.5939 5.83969V1.94797C22.5939 1.19469 21.9832 0.583984 21.2299 0.583984C20.4766 0.583984 19.8659 1.19469 19.8659 1.94797V6.57773C19.8659 7.09539 20.1591 7.56852 20.6227 7.79914C21.1034 8.0382 21.4021 8.51984 21.4021 9.05617C21.4021 9.29062 21.3435 9.51125 21.2414 9.7057L20.8452 9.39281C20.3498 9.00133 19.6499 9.00133 19.1545 9.39281L18.7583 9.7057C18.6562 9.51133 18.5976 9.29062 18.5976 9.05617C18.5976 8.30289 17.9869 7.69219 17.2336 7.69219C16.4803 7.69219 15.8696 8.30289 15.8696 9.05617C15.8696 9.92867 16.1422 10.7382 16.6058 11.4056L5.10274 20.4912C4.8543 20.6875 4.69359 20.9531 4.62414 21.2386H1.36398C0.610703 21.2387 0 21.8493 0 22.6026V34.0522C0 34.8055 0.610703 35.4162 1.36398 35.4162H4.61836C4.59664 35.3195 4.59899 21.3424 4.6243 21.2387H7.27203C7.29734 21.3424 7.29969 35.3195 7.27797 35.4162H32.7223L32.7282 21.2387H35.3759C35.4013 21.3424 35.4036 35.3195 35.3819 35.4162H38.6363C39.3895 35.4162 40.0002 34.8055 40.0002 34.0522V22.6026C40 21.8492 39.3893 21.2387 38.636 21.2387ZM8.55774 21.2387L18.9313 13.0453C19.2724 13.1368 19.6305 13.1862 20.0001 13.1862C20.3697 13.1862 20.7277 13.1367 21.0688 13.0453L31.4424 21.2387H8.55774Z" fill="#005FB8"/>
</svg>
