<svg width="40" height="40" viewBox="0 0 40 40" fill="none" xmlns="http://www.w3.org/2000/svg">
<path d="M26.5233 6.12981H11.9262V2.60083H9.47717V6.12981H7.35186L4.57959 12.6817H5.90936H7.23834H26.6359H27.9657H29.2955L26.5233 6.12981Z" fill="#005FB8"/>
<path d="M36.653 34.9502V23.0906H38.7755V20.6416H36.653H30.929V21.8662V23.0906V34.9502V35.0319H28.4809V34.9502V23.0906V21.8662V20.6416V19.3583V17.498H31.7616V15.1306H30.3314H29.0024H28.4808H5.3143H4.87266H3.54367H2.37555V17.498H5.3143V34.9502H0V37.3992H5.3143H12.9053H21.2245H26.0319H28.4809H36.6531H40V34.9502H36.653ZM21.2245 34.9501H18.7755V26.3559H15.3542V34.9501H12.9052V23.9069H21.2245V34.9501ZM21.3061 21.4579H12.8163V19.0089H21.3061V21.4579Z" fill="#005FB8"/>
</svg>
