<svg width="40" height="20" viewBox="0 0 40 20" fill="none" xmlns="http://www.w3.org/2000/svg">
<path d="M33.8477 13.4459C31.7944 13.2436 30.0867 14.9512 30.2892 17.0044C30.4389 18.5234 31.6677 19.7522 33.1869 19.902C35.2402 20.1045 36.9478 18.3967 36.7455 16.3434C36.5956 14.8244 35.3669 13.5956 33.8477 13.4459ZM34.7214 16.9837C34.6127 17.4198 34.2631 17.7692 33.827 17.8781C32.9102 18.107 32.0842 17.2811 32.3131 16.3642C32.422 15.9281 32.7714 15.5787 33.2075 15.4698C34.1244 15.2411 34.9503 16.0669 34.7214 16.9837ZM39.4067 13.615H38.7048V10.6672C38.7048 9.62904 37.93 8.70201 36.88 8.70201H33.5111C33.4403 8.70201 33.3567 8.69311 33.3095 8.64592L28.0595 3.53576C27.8236 3.29982 27.5366 3.09904 27.1944 3.08732H23.9572C23.6519 3.08732 23.4044 3.33482 23.4044 3.64014V14.9128C23.4044 15.5139 23.8917 16.0012 24.4928 16.0012H29.0191C29.1489 16.0012 29.2344 15.8729 29.258 15.755C29.6119 13.7258 31.3816 12.1803 33.5169 12.1803C35.6522 12.1803 37.4219 13.7258 37.7758 15.755C37.7994 15.8847 37.8728 16.0012 38.0027 16.0012H38.4238C39.0962 16.0012 39.687 15.4247 39.687 14.7639V13.8909C39.6875 13.7611 39.5483 13.615 39.4067 13.615ZM30.8442 8.70201H25.0891C24.9347 8.70201 24.8083 8.57576 24.8083 8.42123V4.7717C24.8083 4.61732 24.9345 4.49092 25.0891 4.49092H26.9139C26.9847 4.49092 27.1277 4.59748 27.1867 4.64467L30.9856 8.28014C31.1272 8.45717 31.0684 8.70201 30.8442 8.70201ZM20.5473 3.01529H18.6153V8.50764H17.8272V3.01529H16.1847V0.081543H14.9369V3.01514H13.5802V5.27811H9.00359V4.48998H12.7922V0.457949H9.40891V3.01529H5.085V8.50764H4.29719V3.01529H2.51922C1.30062 3.01529 0.3125 4.00295 0.3125 5.22201V13.7947C0.3125 15.0136 1.30062 16.0014 2.51922 16.0014H2.61656C2.57078 16.2186 2.54594 16.4433 2.54594 16.674C2.54594 18.4673 3.99703 19.9184 5.79031 19.9184C7.58359 19.9184 9.03469 18.4673 9.03469 16.674C9.03469 16.4433 9.00984 16.2184 8.96406 16.0014H9.91906C9.85219 16.3204 9.83078 16.6562 9.865 17.0023C10.0147 18.5214 11.2434 19.7501 12.7627 19.9C14.8159 20.1023 16.5236 18.3947 16.3211 16.3414C16.3097 16.2259 16.2902 16.1129 16.2667 16.0014H20.548C21.7666 16.0014 22.7547 15.0136 22.7547 13.7947V5.22201C22.7541 4.00295 21.7659 3.01529 20.5473 3.01529ZM7.03297 16.6739C7.03297 17.355 6.47141 17.9165 5.79031 17.9165C5.10922 17.9165 4.54766 17.355 4.54766 16.6739C4.54766 16.4267 4.62234 16.1958 4.74922 16.0012H6.83172C6.95828 16.1958 7.03297 16.4267 7.03297 16.6739ZM14.297 16.9815C14.1883 17.4176 13.8387 17.767 13.4027 17.8759C12.4858 18.1048 11.6598 17.2789 11.8888 16.362C11.9211 16.2323 11.977 16.1117 12.048 16.0012H14.1342C14.3122 16.2751 14.3872 16.6208 14.297 16.9815Z" fill="#005FB8"/>
</svg>
