<svg width="38" height="40" viewBox="0 0 38 40" fill="none" xmlns="http://www.w3.org/2000/svg">
<path d="M33.4062 36.4063V28.0938H30.75V20.5001L30.9531 20.5938C31.0625 20.6407 31.1563 20.6563 31.2813 20.6563C31.6094 20.6563 31.9219 20.4688 32.0625 20.1407L33.25 17.2657C33.3438 17.0626 33.3438 16.8282 33.25 16.6251C33.1562 16.4219 33 16.2657 32.7969 16.1719L14.6875 8.67193C15.3438 7.4063 15.9375 6.12505 16.4531 4.8438C16.625 4.42193 16.4219 3.93755 16 3.75005L8.84375 0.781304C8.42188 0.609429 7.92188 0.812552 7.75 1.2188C5.98438 5.37505 4.84375 9.98443 4.15625 15.7657C4.10938 16.1407 4.32812 16.5001 4.67187 16.6407L7.73438 17.9063C8.07812 18.0469 8.48438 17.9532 8.70313 17.6563C10.0313 15.9688 11.1719 14.3907 12.2188 12.8126L15.8437 14.3126L15.6719 15.5469L15.125 19.2813L12.6562 36.4063H0.546875V39.3594H37.125V36.4063H33.4062ZM20.7969 21.5313L17.8438 19.3282L20.1875 17.3438L20.7969 21.5313ZM21.2031 24.3907L22.0938 30.6251L17.25 26.9063L21.2031 24.3907ZM17.5781 15.0469L19.25 15.7501L17.2344 17.4532L17.5781 15.0469ZM16.75 20.8126L19.8125 23.0938L16.0781 25.4688L16.75 20.8126ZM15.7031 28.0313L20.7344 31.8907L14.5 36.4063L15.7031 28.0313ZM17.625 36.4063L22.4375 32.9219L22.9375 36.4063H17.625ZM22.3281 19.2969L21.9844 16.8751L29.0781 19.8126V28.1094H26.5156V36.4063H24.7969L22.3281 19.2969Z" fill="#005FB8"/>
</svg>
