<svg width="26" height="38" viewBox="0 0 26 38" fill="none" xmlns="http://www.w3.org/2000/svg">
<path d="M16.3452 26.0586H14.1758V30.668H16.3452V26.0586Z" fill="#005FB8"/>
<path d="M11.6773 18.9998H9.47021V23.6445H11.6773V18.9998Z" fill="#005FB8"/>
<path fill-rule="evenodd" clip-rule="evenodd" d="M14.8723 11.421C16.8912 9.06806 18.3312 3.75747 18.3312 1.83512C18.3312 -2.22606 15.91 2.87041 12.9241 2.87041C9.93353 2.87041 7.51706 -2.27783 7.51706 1.83512C7.51706 3.79041 8.99706 9.24217 11.0747 11.5363C4.93823 13.2775 0.100586 22.1104 0.100586 29.8751C0.100586 36.741 5.87706 37.7904 12.9994 37.7904C20.1218 37.7904 25.8959 36.6469 25.8959 29.8751C25.8959 22.8022 21.1806 12.9316 14.8723 11.421ZM18.9547 30.8751H16.6018V33.1904H14.2488V35.6163H11.75V33.1904H9.39706V30.8751L9.42764 30.8375H7.04412V28.3386H9.50764V30.7386L9.54529 30.6916H11.7523V26.1316H9.47V23.8163H7.00647V18.9645H9.47V16.5739H11.75V14.1481H14.2488V16.5739H16.6018V18.9269H18.9171V21.4257H16.4535V19.0234L16.4159 19.0375H14.2465V23.6328H16.6371V26.0233H18.9524V30.8751H18.9547Z" fill="#005FB8"/>
</svg>
