<svg width="29" height="34" viewBox="0 0 29 34" fill="none" xmlns="http://www.w3.org/2000/svg">
<path d="M15.5006 30.5001H23.0006V33.5001H5.00061V30.5001H12.5006V28.9251C10.1223 28.6863 7.83552 27.8827 5.83065 26.5813C3.82578 25.2798 2.16088 23.5182 0.974609 21.4431L3.58011 19.9551C4.49629 21.556 5.76917 22.9241 7.29989 23.9532C8.83061 24.9824 10.578 25.6448 12.4062 25.889C14.2345 26.1332 16.0944 25.9527 17.8416 25.3615C19.5888 24.7702 21.1762 23.7842 22.4804 22.4799C23.7847 21.1757 24.7707 19.5883 25.362 17.8411C25.9532 16.0939 26.1337 14.234 25.8895 12.4057C25.6452 10.5775 24.9829 8.83012 23.9537 7.2994C22.9246 5.76868 21.5565 4.4958 19.9556 3.57962L21.4436 0.974121C23.7402 2.28594 25.6489 4.18188 26.9761 6.46957C28.3033 8.75727 29.0017 11.3553 29.0006 14.0001C29.0006 21.7776 23.0801 28.1736 15.5006 28.9251V30.5001ZM14.0006 24.5001C12.6217 24.5001 11.2564 24.2285 9.98243 23.7009C8.70851 23.1732 7.551 22.3998 6.57599 21.4247C5.60097 20.4497 4.82755 19.2922 4.29987 18.0183C3.7722 16.7444 3.50061 15.379 3.50061 14.0001C3.50061 12.6212 3.7722 11.2559 4.29987 9.98195C4.82755 8.70803 5.60097 7.55051 6.57599 6.5755C7.551 5.60048 8.70851 4.82706 9.98243 4.29939C11.2564 3.77171 12.6217 3.50012 14.0006 3.50012C16.7854 3.50012 19.4561 4.60637 21.4252 6.5755C23.3944 8.54463 24.5006 11.2153 24.5006 14.0001C24.5006 16.7849 23.3944 19.4556 21.4252 21.4247C19.4561 23.3939 16.7854 24.5001 14.0006 24.5001Z" fill="#1FC16B"/>
</svg>
