<svg width="40" height="36" viewBox="0 0 40 36" fill="none" xmlns="http://www.w3.org/2000/svg">
<path d="M39.9988 20.0073L32.4294 17.2141V9.00603L28.7052 7.53924L28.7028 3.40871L20.0009 0.189941L11.2969 3.37355L11.2965 7.53935L7.57235 9.00613V17.2135L0 19.9758V31.2578L8.70435 34.5958L13.6683 32.6922L20.001 35.8099L26.3329 32.6926L31.2957 34.5957L40 31.2577L39.9988 20.0073ZM20.001 1.89411L26.1727 4.14858L20.001 6.51521L13.8292 4.14848L20.001 1.89411ZM2.53256 20.7586L8.70435 18.5041L14.876 20.7586L8.70424 23.1254L2.53256 20.7586ZM20.001 33.361L16.4644 31.6198L17.4087 31.2577L17.4083 19.9813L9.7696 17.1891V10.502L11.2967 9.90053V14.6477L20.001 17.9857L28.7053 14.6477V9.90053L30.2325 10.502V17.1884L22.592 19.9831L22.5914 31.2578L23.5368 31.6204L20.001 33.361ZM25.1241 20.7586L31.2959 18.5041L37.4675 20.7586L31.2958 23.1254L25.1241 20.7586Z" fill="#1FC16B"/>
</svg>
