<svg width="24" height="24" viewBox="0 0 24 24" fill="none" xmlns="http://www.w3.org/2000/svg">
<path d="M12.0001 18.3H13.8001V6.6L19.5547 9.066C19.7167 9.13544 19.8547 9.25093 19.9517 9.39812C20.0487 9.54532 20.1003 9.71774 20.1001 9.894V18.3H21.9001V20.1H2.1001V18.3H3.9001V6.285C3.90008 6.11086 3.95057 5.94046 4.04546 5.79445C4.14035 5.64844 4.27556 5.5331 4.4347 5.4624L11.3674 2.3808C11.436 2.35033 11.5111 2.3375 11.5859 2.34347C11.6607 2.34944 11.7329 2.37403 11.7957 2.415C11.8586 2.45597 11.9103 2.51201 11.946 2.57803C11.9816 2.64405 12.0003 2.71795 12.0001 2.793V18.3Z" fill="#005FB8"/>
</svg>
