<svg width="24" height="24" viewBox="0 0 24 24" fill="none" xmlns="http://www.w3.org/2000/svg">
<g clip-path="url(#clip0_269_551)">
<path d="M12.5708 11.4301L11.8425 12.0098L12.5697 12.5872C12.57 12.5876 12.5705 12.5876 12.5709 12.588C12.9461 12.8883 13.4702 12.8883 13.8457 12.588L14.5644 12.0098L13.8441 11.4289C13.4705 11.1298 12.946 11.1298 12.5708 11.4301Z" fill="#1DAF61"/>
<path d="M21.305 0.398704C21.0107 0.0659914 20.5623 -0.0725647 20.1346 0.03676C20.119 0.0403729 20.1034 0.045581 20.0886 0.0515869L18.0194 0.859979C17.1282 1.08581 16.2104 1.20029 15.292 1.20029H8.708C7.78948 1.20029 6.87181 1.08581 5.98056 0.859979L3.91174 0.0515869C3.89654 0.045581 3.88134 0.0403729 3.86529 0.03676C3.43766 -0.0721424 2.98966 0.0659914 2.69495 0.398704C2.39265 0.740614 2.30856 1.21789 2.47593 1.6451L3.57499 4.43658C2.54439 9.17076 2.54598 14.2685 3.57941 19.5925L2.67093 22.3551C2.51117 22.7623 2.58324 23.2256 2.85871 23.5631C3.0873 23.8446 3.41603 23.9995 3.76559 23.9995C3.83207 23.9995 3.89973 23.9943 3.96697 23.9823L6.33486 23.5795C6.4942 23.5523 6.65438 23.5286 6.81293 23.505C7.00751 23.4762 7.19969 23.4473 7.38709 23.4137C8.09536 23.286 8.78523 23.2215 9.43789 23.2215H14.5621C15.2147 23.2215 15.9046 23.286 16.6129 23.4137C16.8003 23.4473 16.9925 23.4762 17.187 23.505C17.3456 23.5286 17.5058 23.5523 17.6651 23.5795L20.0326 23.9823C20.4546 24.0556 20.869 23.8978 21.1413 23.5631C21.4168 23.2256 21.4888 22.7623 21.3367 22.376L20.4206 19.5917C21.4704 14.0991 21.4721 9.00058 20.4258 4.43419L21.5245 1.6443C21.6914 1.21794 21.6073 0.740661 21.305 0.398704ZM7.29424 16.4819L6.67766 17.0985C6.59958 17.1766 6.49706 17.2158 6.39459 17.2158C6.29206 17.2158 6.18959 17.1766 6.11151 17.0985C5.95494 16.942 5.95494 16.6889 6.11151 16.5324L6.7281 15.9158C6.51831 15.5991 6.39459 15.2207 6.39459 14.8135C6.39459 14.3106 6.58555 13.8378 6.92352 13.471C6.68849 12.8772 6.77539 12.1938 7.1942 11.6705L7.99617 10.6691V9.60849C7.99617 9.38707 8.17554 9.20811 8.39654 9.20811C8.61754 9.20811 8.79691 9.38707 8.79691 9.60849V10.6683L9.60211 11.6697C9.97527 12.1361 10.0826 12.7291 9.93722 13.2728C10.4809 13.1275 11.0739 13.2348 11.5396 13.6071L12.5413 14.4131H13.6015C13.8225 14.4131 14.0019 14.5921 14.0019 14.8135C14.0019 15.0349 13.8225 15.2139 13.6015 15.2139H12.5409L11.5395 16.0159C11.2048 16.2837 10.8032 16.4179 10.402 16.4179C10.1766 16.4179 9.95238 16.371 9.73898 16.2865C9.3722 16.6241 8.89896 16.8155 8.39649 16.8155C7.98927 16.8154 7.61053 16.6917 7.29424 16.4819ZM14.4023 19.2177C14.4023 19.4392 14.2229 19.6181 14.0019 19.6181H9.99808C9.77708 19.6181 9.5977 19.4392 9.5977 19.2177C9.5977 18.9963 9.77708 18.8174 9.99808 18.8174H14.0019C14.2229 18.8174 14.4023 18.9963 14.4023 19.2177ZM14.8027 21.2197H9.19724C8.97624 21.2197 8.79687 21.0407 8.79687 20.8193C8.79687 20.5979 8.97624 20.419 9.19724 20.419H14.8027C15.0237 20.419 15.2031 20.5979 15.2031 20.8193C15.2031 21.0407 15.0237 21.2197 14.8027 21.2197ZM16.4042 12.4111H15.344L14.3462 13.2127C14.0111 13.481 13.6091 13.6151 13.208 13.6151C12.8072 13.6151 12.4064 13.4814 12.0716 13.2143L10.9501 12.3242C10.9381 12.3146 10.9325 12.2994 10.9217 12.2886C10.9105 12.2774 10.8953 12.2718 10.8853 12.2594L9.99883 11.141C9.46389 10.4728 9.46389 9.5375 10 8.86766L10.7988 7.86671V6.80569C10.7988 6.58428 10.9782 6.40532 11.1992 6.40532C11.4202 6.40532 11.5996 6.58428 11.5996 6.80569V7.86553L12.408 8.86649C12.7811 9.33292 12.8888 9.92632 12.7431 10.47C13.2872 10.3247 13.8802 10.4324 14.3454 10.8043L15.3444 11.6103H16.4042C16.6252 11.6103 16.8046 11.7893 16.8046 12.0107C16.8046 12.2321 16.6253 12.4111 16.4042 12.4111ZM17.4881 6.28802L16.7898 6.98629L16.6773 8.22827C16.5816 9.0887 15.9201 9.75014 15.0682 9.84543L13.6468 10.006C13.6316 10.008 13.6163 10.0088 13.6016 10.0088C13.4959 10.0088 13.3938 9.96677 13.3185 9.89151C13.2324 9.80541 13.19 9.6845 13.2036 9.56358L13.3649 8.14142C13.4594 7.28982 14.1209 6.62838 14.9733 6.53308L16.2237 6.41977L16.922 5.72188C17.0786 5.56535 17.3316 5.56535 17.4881 5.72188C17.6447 5.87845 17.6447 6.13149 17.4881 6.28802Z" fill="#1DAF61"/>
<path d="M7.75378 13.3449C7.76218 13.3585 7.76738 13.3669 7.77419 13.3777C7.78939 13.4001 7.8022 13.4234 7.81942 13.445L8.13332 13.8398L8.39715 14.1713L8.97732 13.4454V13.445C9.27761 13.0698 9.27761 12.5461 8.97732 12.171L8.39715 11.4495L7.81937 12.171C7.54592 12.5125 7.52429 12.9762 7.74852 13.3397C7.75016 13.3417 7.75256 13.3429 7.75378 13.3449Z" fill="#1DAF61"/>
<path d="M11.7836 9.36822L11.2011 8.64673L10.6257 9.36785C10.325 9.7434 10.325 10.2671 10.6254 10.6423L11.2011 11.3686L11.7837 10.6423C12.0839 10.2671 12.0839 9.7434 11.7836 9.36822Z" fill="#1DAF61"/>
<path d="M9.76406 15.3905C9.7885 15.4097 9.81412 15.4245 9.83974 15.4405C9.84016 15.4409 9.84054 15.4418 9.84096 15.4418C10.2089 15.686 10.6882 15.6716 11.0393 15.3905L11.7604 14.8127L11.0385 14.2322C10.6641 13.9323 10.1397 13.9331 9.76448 14.233L9.03857 14.8127L9.76368 15.3901C9.76406 15.3901 9.76406 15.3905 9.76406 15.3905Z" fill="#1DAF61"/>
<path d="M8.08313 15.0629L7.38045 14.1801C7.26033 14.3683 7.19507 14.5864 7.19507 14.8135C7.19507 15.4757 7.734 16.0146 8.39623 16.0146C8.62366 16.0146 8.84146 15.9494 9.02966 15.8293L8.14723 15.1266C8.12358 15.1077 8.10195 15.0865 8.08313 15.0629Z" fill="#1DAF61"/>
<path d="M14.1604 8.23049L14.0559 9.15416L14.9784 9.04967C14.9788 9.04925 14.9788 9.04925 14.9792 9.04925C15.4569 8.99599 15.8276 8.62523 15.8805 8.148L15.9622 7.24792L15.0537 7.32999C14.5844 7.38245 14.2137 7.75321 14.1604 8.23049Z" fill="#1DAF61"/>
</g>
<defs>
<clipPath id="clip0_269_551">
<rect width="24" height="24" fill="white"/>
</clipPath>
</defs>
</svg>
