<svg width="14" height="20" viewBox="0 0 14 20" fill="none" xmlns="http://www.w3.org/2000/svg">
<path d="M10.15 5.44332C11.108 5.99611 11.9035 6.79148 12.4565 7.74939C13.0094 8.7073 13.3004 9.79395 13.3 10.9V18.1H9.54695C9.36101 18.627 9.01619 19.0833 8.56001 19.4061C8.10384 19.7289 7.55877 19.9022 6.99995 19.9022C6.44113 19.9022 5.89607 19.7289 5.43989 19.4061C4.98372 19.0833 4.63889 18.627 4.45295 18.1H0.699952V10.9C0.699548 9.79395 0.99047 8.7073 1.54344 7.74939C2.09642 6.79148 2.89194 5.99611 3.84995 5.44332C3.70207 5.1777 3.58865 4.89432 3.51245 4.60002H0.699952V2.80002H3.51335C3.71355 2.0276 4.16457 1.34353 4.79562 0.855183C5.42666 0.366837 6.20201 0.101868 6.99995 0.101868C7.79789 0.101868 8.57324 0.366837 9.20429 0.855183C9.83534 1.34353 10.2864 2.0276 10.4866 2.80002H13.3V4.60002H10.4866C10.4101 4.89702 10.2958 5.18052 10.1509 5.44332H10.15ZM6.99995 11.8C6.76126 11.8 6.53234 11.8948 6.36356 12.0636C6.19477 12.2324 6.09995 12.4613 6.09995 12.7V17.2C6.09995 17.4387 6.19477 17.6676 6.36356 17.8364C6.53234 18.0052 6.76126 18.1 6.99995 18.1C7.23865 18.1 7.46757 18.0052 7.63635 17.8364C7.80513 17.6676 7.89995 17.4387 7.89995 17.2V12.7C7.89995 12.4613 7.80513 12.2324 7.63635 12.0636C7.46757 11.8948 7.23865 11.8 6.99995 11.8ZM6.99995 5.50002C7.47734 5.50002 7.93518 5.31037 8.27274 4.97281C8.61031 4.63524 8.79995 4.17741 8.79995 3.70002C8.79995 3.22263 8.61031 2.76479 8.27274 2.42723C7.93518 2.08966 7.47734 1.90002 6.99995 1.90002C6.52256 1.90002 6.06473 2.08966 5.72716 2.42723C5.38959 2.76479 5.19995 3.22263 5.19995 3.70002C5.19995 4.17741 5.38959 4.63524 5.72716 4.97281C6.06473 5.31037 6.52256 5.50002 6.99995 5.50002Z" fill="#92C23D"/>
</svg>
