<svg width="20" height="20" viewBox="0 0 20 20" fill="none" xmlns="http://www.w3.org/2000/svg">
<path d="M9.99998 15.4C8.56781 15.4 7.1943 14.831 6.1816 13.8184C5.1689 12.8057 4.59998 11.4321 4.59998 9.99998C4.59998 8.56781 5.1689 7.1943 6.1816 6.1816C7.1943 5.1689 8.56781 4.59998 9.99998 4.59998C11.4321 4.59998 12.8057 5.1689 13.8184 6.1816C14.831 7.1943 15.4 8.56781 15.4 9.99998C15.4 11.4321 14.831 12.8057 13.8184 13.8184C12.8057 14.831 11.4321 15.4 9.99998 15.4ZM9.09998 0.0999756H10.9V2.79998H9.09998V0.0999756ZM9.09998 17.2H10.9V19.9H9.09998V17.2ZM2.36348 3.63608L3.63608 2.36348L5.54498 4.27238L4.27238 5.54498L2.36348 3.63698V3.63608ZM14.455 15.7276L15.7276 14.455L17.6365 16.3639L16.3639 17.6365L14.455 15.7276ZM16.3639 2.36258L17.6365 3.63608L15.7276 5.54498L14.455 4.27238L16.3639 2.36348V2.36258ZM4.27238 14.455L5.54498 15.7276L3.63608 17.6365L2.36348 16.3639L4.27238 14.455ZM19.9 9.09998V10.9H17.2V9.09998H19.9ZM2.79998 9.09998V10.9H0.0999756V9.09998H2.79998Z" fill="#16D4B3"/>
</svg>
